<?xml version="1.0" encoding="UTF-8"?>
<svg version="1.1" xmlns="http://www.w3.org/2000/svg" width="250" height="111">
<path d="M0 0 C82.5 0 165 0 250 0 C250 36.63 250 73.26 250 111 C167.5 111 85 111 0 111 C0 74.37 0 37.74 0 0 Z " fill="#E9E9E1" transform="translate(0,0)"/>
<path d="M0 0 C2 1.6875 2 1.6875 3 4 C3 5.98 3 7.96 3 10 C-1.29 10 -5.58 10 -10 10 C-9.01 11.485 -9.01 11.485 -8 13 C-4.46327974 13.30754089 -1.38954801 13.04293785 2 12 C0.125 15.875 0.125 15.875 -1 17 C-4.00477224 17.35055676 -6.09133663 17.56208692 -9 17 C-12.14648253 14.43144284 -13.75171045 12.9939561 -14.25390625 8.9609375 C-14.02464126 5.25101314 -13.29305628 3.36410023 -10.9375 0.4375 C-7.00407586 -1.48736713 -4.12603756 -1.38427667 0 0 Z " fill="#161615" transform="translate(132,30)"/>
<path d="M0 0 C2.4375 2.25 2.4375 2.25 4 5 C4 6.65 4 8.3 4 10 C-0.29 10 -4.58 10 -9 10 C-8.01 11.485 -8.01 11.485 -7 13 C-3.7 12.67 -0.4 12.34 3 12 C1 16 1 16 0 17 C-7.22962963 17.59259259 -7.22962963 17.59259259 -10.4375 15.125 C-13.04191134 11.58300058 -13.43241556 9.41063875 -13 5 C-9.12542889 -0.81185667 -6.82128168 -1.64651627 0 0 Z " fill="#151515" transform="translate(102,30)"/>
<path d="M0 0 C3.06084489 2.39128507 3.00638961 4.05031819 3.5 7.9375 C3.35672652 11.27016563 2.94083006 12.08606537 0.9375 15 C-2.75807048 17.51613309 -4.61537271 17.79720496 -9 17 C-11.4375 14.8125 -11.4375 14.8125 -13 12 C-13 10.35 -13 8.7 -13 7 C-8.71 7 -4.42 7 0 7 C-0.99 5.68 -1.98 4.36 -3 3 C-5.29845495 2.7322559 -5.29845495 2.7322559 -7.6875 3.25 C-8.89986328 3.44335938 -8.89986328 3.44335938 -10.13671875 3.640625 C-10.75160156 3.75921875 -11.36648437 3.8778125 -12 4 C-9.36010184 -1.84548877 -5.91345439 -1.52371217 0 0 Z " fill="#111111" transform="translate(169,30)"/>
<path d="M0 0 C2 2 2 2 2.1953125 5.4765625 C2.18201493 6.85950968 2.15816232 8.24238654 2.125 9.625 C2.11597656 10.33140625 2.10695312 11.0378125 2.09765625 11.765625 C2.07407603 13.51056098 2.03820461 15.25532295 2 17 C1.01 17 0.02 17 -1 17 C-1.33 12.71 -1.66 8.42 -2 4 C-3.65 3.67 -5.3 3.34 -7 3 C-9.68092691 5.68092691 -9.38670257 7.39167363 -9.625 11.125 C-9.69976562 12.22070312 -9.77453125 13.31640625 -9.8515625 14.4453125 C-9.90054688 15.28835937 -9.94953125 16.13140625 -10 17 C-10.99 17 -11.98 17 -13 17 C-13 11.39 -13 5.78 -13 0 C-7.86038643 -0.85660226 -4.94460524 -1.04597419 0 0 Z " fill="#080808" transform="translate(189,30)"/>
<path d="M0 0 C1.32 0 2.64 0 4 0 C5.32 3.3 6.64 6.6 8 10 C9.53521956 7.69717067 10.58357909 5.82137765 11.625 3.3125 C12.07875 2.219375 12.5325 1.12625 13 0 C14.32 0 15.64 0 17 0 C15.13236819 5.72210596 13.14710968 11.37661751 11 17 C9.35 17 7.7 17 6 17 C4.99580363 14.5433053 3.99649499 12.08481647 3 9.625 C2.71382812 8.92632812 2.42765625 8.22765625 2.1328125 7.5078125 C0 2.2265625 0 2.2265625 0 0 Z " fill="#141413" transform="translate(137,30)"/>
<path d="M0 0 C0.99 0 1.98 0 3 0 C3 1.65 3 3.3 3 5 C4.98 5 6.96 5 9 5 C9 5.99 9 6.98 9 8 C7.35 8 5.7 8 4 8 C4 11.63 4 15.26 4 19 C5.65 19 7.3 19 9 19 C9 19.99 9 20.98 9 22 C5.625 22.125 5.625 22.125 2 22 C0 20 0 20 -0.1953125 16.9609375 C-0.16050781 15.18589844 -0.16050781 15.18589844 -0.125 13.375 C-0.10695312 12.18648437 -0.08890625 10.99796875 -0.0703125 9.7734375 C-0.04710937 8.85820313 -0.02390625 7.94296875 0 7 C-1.32 7 -2.64 7 -4 7 C-4 6.34 -4 5.68 -4 5 C-2.68 5 -1.36 5 0 5 C0 3.35 0 1.7 0 0 Z " fill="#151514" transform="translate(198,25)"/>
<path d="M0 0 C0.99 0 1.98 0 3 0 C3.33 6.93 3.66 13.86 4 21 C4.99 21.33 5.98 21.66 7 22 C7 22.99 7 23.98 7 25 C5.00045254 25.04254356 2.99958364 25.04080783 1 25 C0 24 0 24 -0.11352539 21.68334961 C-0.10828857 20.68311768 -0.10305176 19.68288574 -0.09765625 18.65234375 C-0.09443359 17.57275391 -0.09121094 16.49316406 -0.08789062 15.38085938 C-0.07951172 14.24455078 -0.07113281 13.10824219 -0.0625 11.9375 C-0.05798828 10.79732422 -0.05347656 9.65714844 -0.04882812 8.48242188 C-0.03699747 5.65489649 -0.0205141 2.8274736 0 0 Z " fill="#090908" transform="translate(110,22)"/>
<path d="M0 0 C3.3 0 6.6 0 10 0 C10 0.99 10 1.98 10 3 C8.02 3.33 6.04 3.66 4 4 C3.67 8.29 3.34 12.58 3 17 C2.01 17 1.02 17 0 17 C0 11.39 0 5.78 0 0 Z " fill="#030303" transform="translate(78,30)"/>
<path d="M0 0 C5.61 0 11.22 0 17 0 C17 1.32 17 2.64 17 4 C11.39 4 5.78 4 0 4 C0 2.68 0 1.36 0 0 Z " fill="#000000" transform="translate(210,36)"/>
<path d="M0 0 C5.61 0 11.22 0 17 0 C17 1.32 17 2.64 17 4 C11.39 4 5.78 4 0 4 C0 2.68 0 1.36 0 0 Z " fill="#000000" transform="translate(210,29)"/>
<path d="M0 0 C0.66 1.32 1.32 2.64 2 4 C-2.29 4 -6.58 4 -11 4 C-10.67 2.68 -10.34 1.36 -10 0 C-6.34745949 -0.9392247 -3.60112861 -1.2652614 0 0 Z " fill="#C5C5BE" transform="translate(167,33)"/>
<path d="M0 0 C2.5625 0.1875 2.5625 0.1875 4.5625 2.1875 C4.5625 3.1775 4.5625 4.1675 4.5625 5.1875 C1.5925 5.1875 -1.3775 5.1875 -4.4375 5.1875 C-3.20220588 0.24632353 -3.20220588 0.24632353 0 0 Z " fill="#D2D2CB" transform="translate(126.4375,31.8125)"/>
<path d="M0 0 C2.5625 0.1875 2.5625 0.1875 4.5625 2.1875 C4.5625 3.1775 4.5625 4.1675 4.5625 5.1875 C1.5925 5.1875 -1.3775 5.1875 -4.4375 5.1875 C-3.20220588 0.24632353 -3.20220588 0.24632353 0 0 Z " fill="#D4D4CD" transform="translate(97.4375,31.8125)"/>
<path d="M0 0 C1.41655793 -0.0272415 2.83327045 -0.04650467 4.25 -0.0625 C5.43335937 -0.07990234 5.43335937 -0.07990234 6.640625 -0.09765625 C8.90691002 -0.00385306 10.8288895 0.36758937 13 1 C12.67 1.66 12.34 2.32 12 3 C9.71484375 3.4140625 9.71484375 3.4140625 6.9375 3.625 C5.55884766 3.73714844 5.55884766 3.73714844 4.15234375 3.8515625 C3.44207031 3.90054688 2.73179688 3.94953125 2 4 C1.34 2.68 0.68 1.36 0 0 Z " fill="#DFDFD7" transform="translate(122,40)"/>
<path d="M0 0 C1.4370809 -0.05422947 2.87475462 -0.09289723 4.3125 -0.125 C5.11300781 -0.14820313 5.91351563 -0.17140625 6.73828125 -0.1953125 C9 0 9 0 12 2 C8.49223216 3.60355101 5.85645121 4.22036864 2 4 C1.34 2.68 0.68 1.36 0 0 Z " fill="#E4E4DD" transform="translate(93,40)"/>
<path d="M0 0 C2.97 0 5.94 0 9 0 C8.34 1.32 7.68 2.64 7 4 C5.02 4 3.04 4 1 4 C0.67 2.68 0.34 1.36 0 0 Z " fill="#E8E8E0" transform="translate(160,40)"/>
<path d="M0 0 C2.64 0 5.28 0 8 0 C8 0.99 8 1.98 8 3 C5.69 3.33 3.38 3.66 1 4 C0.67 2.68 0.34 1.36 0 0 Z " fill="#1C1C1B" transform="translate(80,30)"/>
</svg>
